<?xml version="1.0" encoding="UTF-8"?>
<!DOCTYPE svg PUBLIC "-//W3C//DTD SVG 1.1//EN" "http://www.w3.org/Graphics/SVG/1.1/DTD/svg11.dtd">
<svg xmlns="http://www.w3.org/2000/svg" version="1.1" width="1082px" height="1081px" style="shape-rendering:geometricPrecision; text-rendering:geometricPrecision; image-rendering:optimizeQuality; fill-rule:evenodd; clip-rule:evenodd" xmlns:xlink="http://www.w3.org/1999/xlink">
<g><path style="opacity:1" fill="#e72c2d" d="M 358.5,96.5 C 547.5,96.5 736.5,96.5 925.5,96.5C 925.649,97.552 925.483,98.552 925,99.5C 814.5,208.667 704,317.833 593.5,427C 736.879,614.257 880.379,801.423 1024,988.5C 1024.48,989.448 1024.65,990.448 1024.5,991.5C 884.5,992.34 744.5,992.84 604.5,993C 523.21,874.92 442.043,756.754 361,638.5C 360.5,756.833 360.333,875.166 360.5,993.5C 254.833,993.5 149.167,993.5 43.5,993.5C 43.5,872.5 43.5,751.5 43.5,630.5C 148.5,630.5 253.5,630.5 358.5,630.5C 359.177,452.473 359.177,274.473 358.5,96.5 Z"/></g>
<g><path style="opacity:1" fill="#e72c2d" d="M 202.5,97.5 C 203.552,97.3505 204.552,97.5172 205.5,98C 256.873,149.04 307.873,200.373 358.5,252C 306.649,304.185 254.482,356.018 202,407.5C 149.969,356.969 98.8027,305.636 48.5,253.5C 48.6667,252.833 48.8333,252.167 49,251.5C 100.368,200.299 151.535,148.965 202.5,97.5 Z"/></g>
</svg>
